<svg width="142" height="131" viewBox="0 0 142 131" fill="none" xmlns="http://www.w3.org/2000/svg">
<path d="M84.2678 123.632V108.203C95.4771 102.466 119.043 90.3998 123.632 88.0261C127.457 86.048 127.984 81.1027 127.984 76.9486V21.9571C127.984 21.9571 102.664 33.8258 91.7845 41.1448C80.9049 48.4638 79.1246 56.9697 77.9377 65.8712C76.7508 74.7727 77.5421 126.599 77.5421 126.599L70.8165 130.16C58.0247 123.698 29.3948 109.271 17.2096 103.258C5.02441 97.2441 0 89.6086 0 80.1136V74.9705V0.197811L10.6818 5.53872C19.979 10.2862 35.265 18.127 44.5076 22.7483C55.9806 28.4848 58.3544 29.6717 67.2559 39.3645C64.2889 43.9141 61.5194 50.4419 60.7281 53.4091C54.0025 42.7273 41.7382 36.3973 37.1886 33.8258L26.1111 28.4848L13.4512 21.7593C13.4512 39.1007 13.5918 71.8866 13.4512 76.9486C13.2534 84.0699 14.4402 86.6414 23.3418 90.9933L64.0911 111.763C64.157 101.148 64.2493 76.553 64.0911 63.1018C63.8933 46.2879 80.5093 32.2433 84.2677 29.6717C88.0261 27.1002 92.0483 25.0561 93.7626 24.133L99.697 21.1658L107.609 17.2096L141.633 0C141.633 22.6824 141.831 70.6187 141.831 80.9049C141.831 87.2348 138.072 95.7407 129.567 100.29L84.2678 123.632Z" fill="#C38821"/>
</svg>
