<svg width="171" height="38" viewBox="0 0 171 38" fill="none" xmlns="http://www.w3.org/2000/svg">
<path d="M9.56424 0.515213C3.6518 2.39328 0 7.54058 0 14.0095C0 20.1654 3.72136 25.3822 9.35557 27.156C18.2242 29.9383 26.7799 23.4694 26.7799 13.9399C26.7799 7.57536 23.4411 2.60196 17.946 0.723887C15.5462 -0.0760312 11.7205 -0.180368 9.56424 0.515213ZM16.1723 7.29713C18.9894 8.58396 20.3805 11.2272 20.0675 14.7399C19.9284 16.2701 19.6154 17.2092 18.885 18.2525C15.2332 23.5042 7.51228 21.2435 6.71236 14.7051C6.05156 9.14042 11.2684 5.07127 16.1723 7.29713Z" fill="#223263"/>
<path d="M38.57 0.689099C32.9358 2.49761 29.4579 7.54058 29.4579 13.9399C29.4579 21.8696 35.0921 27.8863 42.5 27.8516C44.5172 27.8516 45.4563 27.5733 49.3167 25.8691C49.6297 25.73 49.7341 27.0169 49.7341 31.6425V37.5897H53.0381H56.3421V19.3307V1.07167H55.577C55.0901 1.07167 54.2901 1.62813 53.525 2.53239C52.5512 3.6801 52.0991 3.95833 51.7513 3.6801C46.604 0.0282972 43.1261 -0.771621 38.57 0.689099ZM45.5606 7.40146C47.4734 8.41005 48.8646 10.149 49.4558 12.2705C50.2905 15.4354 48.6212 18.8786 45.5606 20.4436C41.1089 22.739 36.205 19.3655 36.1702 14.0095C36.1702 10.8446 37.5614 8.51439 40.1698 7.29712C42.0479 6.42765 43.7173 6.46242 45.5606 7.40146Z" fill="#223263"/>
<path d="M124.231 0.72388C120.614 2.04549 118.214 4.37568 116.44 8.20138C115.745 9.69688 115.64 10.4968 115.64 14.1138C115.64 18.1482 115.675 18.3916 116.788 20.6175C119.605 26.3561 126.283 29.1732 132.299 27.156C133.586 26.7386 135.325 25.8691 136.195 25.2083C137.029 24.5475 137.864 24.0259 138.038 24.0259C138.212 24.0259 138.908 24.791 139.603 25.7648C140.403 26.843 141.099 27.5038 141.551 27.5038C142.246 27.5038 142.246 27.2603 142.246 14.2877V1.07167H141.481C140.994 1.07167 140.229 1.62814 139.429 2.53239L138.142 4.02789L136.647 2.94974C133.586 0.75866 132.195 0.271753 129.03 0.132636C126.77 0.0630782 125.657 0.202194 124.231 0.72388ZM131.047 7.19279C136.96 9.62732 137.099 17.9395 131.291 20.5827C126.77 22.6347 122.074 19.2611 122.074 13.9399C122.074 8.65351 126.526 5.27994 131.047 7.19279Z" fill="#223263"/>
<path d="M61.2807 9.83599C61.4198 19.5046 61.6285 20.5827 63.8196 23.5042C66.6714 27.2255 72.7578 28.9297 76.4444 27.0169C77.7312 26.3561 77.8007 26.4952 76.8269 28.0602C75.6097 30.0426 73.975 30.8078 70.8797 30.8078H68.1669V34.1813V37.5897H70.5319C76.5139 37.5897 81.1743 34.7726 83.5741 29.6601L84.687 27.3299L84.7913 14.1834L84.8957 1.07167H81.5569H78.2529V8.8274C78.2529 16.1658 78.2181 16.6527 77.4877 18.1134C76.027 20.9653 73.2795 21.9739 70.6015 20.6175C69.9407 20.3045 69.106 19.4698 68.6886 18.809C68.0626 17.6961 67.993 16.8961 67.8887 9.31431L67.7844 1.07167H64.4804H61.1416L61.2807 9.83599Z" fill="#223263"/>
<path d="M94.5992 1.5238C92.7559 2.11504 90.3213 4.75825 89.7649 6.70588C88.6867 10.6011 90.1127 14.5312 93.3471 16.5484C95.0165 17.5569 95.1556 17.5917 100.303 17.6961C103.19 17.7656 105.763 17.9743 106.007 18.183C106.668 18.7394 106.494 19.748 105.659 20.3393C104.998 20.7914 103.572 20.8957 97.138 20.8957H89.3823V24.1997V27.5038H97.3119C103.294 27.5038 105.694 27.3646 106.981 26.9821C112.615 25.3127 114.91 18.2873 111.224 14.079C109.206 11.7836 107.92 11.3663 102.077 11.1576C99.2248 11.0533 96.6511 10.8446 96.4425 10.7055C95.886 10.3577 95.8512 8.65351 96.4077 8.09704C96.7207 7.78403 98.9118 7.67969 104.059 7.67969H111.293V4.37568V1.07167L103.572 1.10645C98.9466 1.14123 95.3295 1.31512 94.5992 1.5238Z" fill="#223263"/>
<path d="M147.185 9.6621C147.359 19.4002 147.568 20.548 149.828 23.5042C150.767 24.7562 151.811 25.5909 153.515 26.4604C155.636 27.5385 156.227 27.6777 158.558 27.6777C160.401 27.6777 161.549 27.469 162.349 27.0516C163.948 26.1822 163.844 27.0516 162.175 28.8601C160.644 30.46 158.697 31.086 155.914 30.9121L154.071 30.8078V34.2509V37.694L157.34 37.5201C163.044 37.2071 166.939 34.7726 169.27 30.0426L170.591 27.3646L170.696 14.2182L170.8 1.07168H167.496H164.192L164.088 9.34909L163.983 17.6613L163.009 18.9133C161.688 20.6523 160.227 21.3479 158.349 21.1392C156.506 20.9305 155.323 20.2002 154.523 18.7047C153.967 17.7656 153.897 16.444 153.793 9.31431L153.654 1.07168H150.35H147.046L147.185 9.6621Z" fill="#223263"/>
</svg>
